<svg xmlns="http://www.w3.org/2000/svg" xmlns:xlink="http://www.w3.org/1999/xlink" width="176.559" height="79.502" viewBox="0 0 176.559 79.502"><defs><clipPath id="a"><rect x="7" y="-2" width="176.559" height="79.502" fill="none"/></clipPath><clipPath id="b"><rect width="264.559" height="81.502" transform="translate(-77)" fill="none"/></clipPath></defs><g transform="translate(-7 2)" clip-path="url(#a)" style="isolation:isolate"><g transform="translate(66.348 -8.686)"><g transform="translate(10.652 8.686)" clip-path="url(#b)"><text transform="translate(9.063 33.325)" fill="#f40076" font-size="21" font-family="SegoeUI-Bold, Segoe UI" font-weight="700"><tspan x="0" y="0">PLAN MY</tspan></text><text transform="translate(9.063 50.187)" fill="#f40076" font-size="16" font-family="SegoeUI-Bold, Segoe UI" font-weight="700"><tspan x="0" y="0">ADMI</tspan><tspan y="0" letter-spacing="-0.016em">S</tspan><tspan y="0">SION</tspan></text><path d="M131.653,113.768c-40.867,2.447-49.907-7.165-51.611-13.279a27.32,27.32,0,0,1,2.719-3.836,27.713,27.713,0,0,1,48.8,15.435c.05.554.082,1.117.1,1.681" transform="translate(-129.824 -66.732)" fill="#f40076"/><path d="M124.83,259.243a27.726,27.726,0,0,1-50.709.56c7.554,3.632,24.1,8.326,50.709-.56" transform="translate(-125.229 -200.535)" fill="#fbc3b7"/><path d="M118.471,161.911a27.6,27.6,0,0,1-1.347,8.55q-.389,1.212-.89,2.374c-26.609,8.886-43.155,4.193-50.709.56a26.426,26.426,0,0,1-1.135-2.934,27.759,27.759,0,0,1,2.462-22.579c1.7,6.115,10.744,15.727,51.611,13.28.006.251.009.5.009.749" transform="translate(-116.631 -114.127)" fill="#f05f94"/><path d="M4.786,36c-.261,1.31,1.242,5.454,1.242,5.454l.324-.017-.387-1.278,1.017.923,1.293-.063-.37-.954.679.616.937-.7C7.873,39.413,7.729,36.5,7.729,36.5l-.648.032c-.645.032-.789-2.88-.9-5.144s1.98-5.936,3.195-7.615a7.878,7.878,0,0,0,1.05-3.956l6.6,1.31s6.783-7.143,23.3-7.629C25.2,15.861,19,21.68,19,21.68l.608,5.806s.948-1.011,2.5-2.365a26.351,26.351,0,0,1,5.971-4.338,18.66,18.66,0,0,1,6.642-2.47c.162-.023.324-.042.484-.059a.01.01,0,0,0,.008,0,26.576,26.576,0,0,1,4.2-.483q.661-.023,1.331-.012a26.069,26.069,0,0,1,8.864,1.688l-.374-2.815L61.474,8.244,31.234,0,0,17.747,7.314,19.2a5.954,5.954,0,0,1,1,2.68c.049.972-2.53,7.907-2.53,7.907l-.536,2.3a6.471,6.471,0,0,0,.19,3.883L4.786,36" transform="translate(-67.715 0.62)" fill="#f40076"/><path d="M98.691,95.505a24.493,24.493,0,0,1,3.788-2.752,16.7,16.7,0,0,0-3.788,2.752" transform="translate(-84.663 -79.569)" fill="#f40076"/><path d="M119,185.861l.563-11.917c-.564.256-1.017.453-1.458.665a39.346,39.346,0,0,1-10.743,3.425,4.311,4.311,0,0,1-3.383-.637c-1.919-1.355-3.917-2.643-5.893-3.965a3.756,3.756,0,0,1,3.283-.658c1.716.376,3.491.622,5.262.843a3.4,3.4,0,0,0,1.7-.226q10.847-5.1,21.647-10.259a10.88,10.88,0,0,1,6.287-.971c1.916.265,2.485,1.325,1.32,2.6a8.348,8.348,0,0,1-2.323,1.689c-2.129,1.088-4.329,2.087-6.519,3.1a1.926,1.926,0,0,0-1.155,1.159c-1.433,4.076-2.953,8.135-4.375,12.213a2.946,2.946,0,0,1-1.963,1.93c-.689.251-1.329.592-2.252,1.011" transform="translate(-143.826 -125.121)" fill="#fff"/><path d="M134.641,176.6c1.682-.807,3.007-1.951,5.251-1.394,2.263.562,4.648.857,6.978,1.271.195.035.383.089.765.179-2.052.957-3.928,1.839-5.819,2.7a1.05,1.05,0,0,1-.679.036c-2.032-.792-4.051-1.6-6.066-2.42-.14-.057-.226-.192-.431-.373" transform="translate(-172.188 -135.216)" fill="#fff"/></g></g></g></svg>